<svg width="474" height="431" viewBox="0 0 474 431" fill="none" xmlns="http://www.w3.org/2000/svg">
<mask id="mask0_4_1324" style="mask-type:luminance" maskUnits="userSpaceOnUse" x="124" y="78" width="333" height="274">
<path d="M225.216 350.055L450.746 242.483C456.313 239.828 458.302 233.359 455.188 228.035L371.328 84.6406C368.215 79.3165 361.178 77.1531 355.611 79.8083L130.08 187.381C124.513 190.036 122.525 196.505 125.638 201.829L209.498 345.223C212.612 350.547 219.649 352.711 225.216 350.055Z" fill="white"/>
</mask>
<g mask="url(#mask0_4_1324)">
<path d="M225.216 350.055L450.746 242.483C456.313 239.828 458.302 233.359 455.188 228.035L371.328 84.6406C368.215 79.3165 361.178 77.1531 355.611 79.8083L130.08 187.381C124.513 190.036 122.525 196.505 125.638 201.829L209.498 345.223C212.612 350.547 219.649 352.711 225.216 350.055Z" fill="url(#paint0_linear_4_1324)"/>
<path d="M387.139 111.674L365.645 74.9214L119.955 192.109L141.449 228.862L387.139 111.674Z" fill="#1A1C15" fill-opacity="0.4"/>
<path d="M352.082 216.134C351.966 215.935 351.908 215.732 351.908 215.527C351.912 215.328 351.968 215.145 352.077 214.978C352.192 214.808 352.351 214.675 352.552 214.579C352.76 214.479 352.972 214.436 353.185 214.449C353.406 214.459 353.605 214.52 353.783 214.633C353.971 214.749 354.123 214.906 354.24 215.105C354.356 215.304 354.412 215.504 354.408 215.703C354.411 215.899 354.355 216.082 354.24 216.252C354.131 216.419 353.976 216.55 353.774 216.646C353.566 216.746 353.352 216.79 353.131 216.781C352.917 216.768 352.718 216.706 352.534 216.597C352.349 216.488 352.199 216.333 352.082 216.134ZM354.379 220.062C354.263 219.862 354.205 219.66 354.205 219.454C354.209 219.255 354.265 219.072 354.374 218.905C354.489 218.735 354.647 218.602 354.849 218.506C355.057 218.407 355.268 218.364 355.482 218.377C355.703 218.386 355.902 218.448 356.08 218.56C356.268 218.676 356.42 218.834 356.536 219.033C356.653 219.232 356.709 219.431 356.705 219.63C356.708 219.826 356.652 220.009 356.537 220.179C356.428 220.346 356.273 220.478 356.071 220.574C355.863 220.673 355.648 220.718 355.428 220.708C355.214 220.695 355.015 220.634 354.831 220.525C354.646 220.415 354.496 220.261 354.379 220.062ZM356.676 223.989C356.56 223.79 356.502 223.588 356.502 223.382C356.506 223.183 356.562 223 356.671 222.833C356.786 222.663 356.944 222.53 357.146 222.434C357.354 222.334 357.565 222.291 357.779 222.304C358 222.314 358.199 222.375 358.377 222.488C358.565 222.604 358.717 222.761 358.833 222.96C358.95 223.16 359.006 223.359 359.002 223.558C359.005 223.754 358.949 223.937 358.834 224.107C358.725 224.274 358.57 224.405 358.368 224.501C358.16 224.601 357.945 224.646 357.725 224.636C357.511 224.623 357.312 224.561 357.128 224.452C356.943 224.343 356.793 224.188 356.676 223.989ZM358.973 227.917C358.857 227.718 358.799 227.515 358.799 227.31C358.803 227.11 358.859 226.927 358.967 226.761C359.083 226.59 359.241 226.457 359.443 226.361C359.651 226.262 359.862 226.219 360.076 226.232C360.297 226.242 360.496 226.303 360.673 226.415C360.861 226.531 361.014 226.689 361.13 226.888C361.247 227.087 361.303 227.286 361.299 227.485C361.302 227.681 361.246 227.864 361.13 228.034C361.022 228.201 360.867 228.333 360.665 228.429C360.457 228.528 360.242 228.573 360.022 228.563C359.808 228.55 359.609 228.489 359.424 228.38C359.24 228.27 359.09 228.116 358.973 227.917ZM362.376 237.769L363.717 237.13L361.659 233.611L362.778 233.077L369.734 234.259L370.439 235.464L365.54 237.801L366.256 239.025L365.137 239.559L364.421 238.335L363.081 238.974L362.376 237.769ZM363.552 234.446L364.827 236.625L367.81 235.202L367.799 235.183L363.573 234.437L363.552 234.446ZM365.669 240.952C366.559 241.358 367.334 241.691 367.993 241.952C368.653 242.213 369.22 242.403 369.693 242.522C370.167 242.641 370.571 242.699 370.904 242.696C371.244 242.69 371.532 242.631 371.767 242.519C372.547 242.147 372.698 241.553 372.22 240.737C371.841 240.088 371.146 239.503 370.137 238.982L371.012 238.12C372.026 238.59 372.837 239.345 373.446 240.387C373.882 241.132 374.032 241.784 373.894 242.343C373.764 242.898 373.345 243.344 372.64 243.681C372.324 243.831 371.973 243.929 371.587 243.974C371.207 244.015 370.779 243.997 370.304 243.919C369.829 243.842 369.296 243.702 368.705 243.499C368.117 243.302 367.456 243.038 366.72 242.707L366.7 242.717L368.482 245.763L367.363 246.296L364.55 241.486L365.669 240.952ZM369.583 250.312C369.346 249.907 369.172 249.522 369.061 249.155C368.96 248.792 368.898 248.415 368.876 248.023L370.124 247.822C370.141 248.217 370.187 248.561 370.263 248.853C370.35 249.149 370.478 249.441 370.647 249.73C370.978 250.296 371.353 250.672 371.771 250.859C372.2 251.048 372.647 251.033 373.11 250.812C373.514 250.619 373.75 250.355 373.819 250.017C373.899 249.684 373.811 249.298 373.555 248.861C373.416 248.623 373.259 248.443 373.085 248.321C372.917 248.196 372.697 248.099 372.425 248.031L371.766 246.904L376.094 245.135L378.564 249.357L377.465 249.881L375.627 246.739L373.751 247.498L373.762 247.517C373.969 247.665 374.145 247.819 374.291 247.98C374.447 248.144 374.59 248.339 374.722 248.564C375.162 249.315 375.299 249.998 375.133 250.611C374.968 251.225 374.518 251.706 373.786 252.055C372.98 252.44 372.213 252.481 371.486 252.178C370.77 251.879 370.135 251.257 369.583 250.312ZM381.25 253.73C381.588 254.308 381.766 254.848 381.784 255.349C381.802 255.85 381.661 256.299 381.361 256.697C381.065 257.102 380.607 257.451 379.989 257.746C379.062 258.189 378.151 258.401 377.255 258.384C376.371 258.371 375.544 258.14 374.776 257.693C374.007 257.246 373.335 256.589 372.759 255.721L373.653 255.023C374.166 255.798 374.723 256.362 375.326 256.716C375.935 257.066 376.611 257.216 377.355 257.166L377.354 257.142C377.077 256.978 376.825 256.781 376.597 256.553C376.373 256.331 376.17 256.066 375.99 255.758C375.573 255.044 375.462 254.378 375.659 253.758C375.859 253.145 376.345 252.654 377.118 252.286C377.655 252.029 378.178 251.916 378.685 251.945C379.192 251.974 379.663 252.14 380.097 252.443C380.539 252.742 380.923 253.171 381.25 253.73ZM380.171 254.244C379.893 253.769 379.548 253.465 379.135 253.333C378.733 253.204 378.301 253.25 377.837 253.471C377.373 253.692 377.08 253.984 376.957 254.347C376.844 254.713 376.92 255.121 377.183 255.571C377.371 255.892 377.586 256.143 377.829 256.323C378.078 256.5 378.346 256.598 378.633 256.618C378.93 256.64 379.226 256.581 379.522 256.44C379.784 256.315 379.999 256.147 380.167 255.935C380.34 255.73 380.432 255.484 380.446 255.198C380.469 254.916 380.378 254.598 380.171 254.244Z" fill="#E8EDDF"/>
<path opacity="0.2" d="M388.163 214.345C392.615 221.956 402.676 225.049 410.635 221.253C418.593 217.457 421.437 208.209 416.985 200.597C412.534 192.985 402.473 189.892 394.514 193.689C386.555 197.485 383.712 206.733 388.163 214.345Z" fill="#E8EDDF"/>
<path opacity="0.4" d="M397.988 231.142C402.439 238.753 412.5 241.847 420.459 238.05C428.417 234.254 431.261 225.006 426.809 217.394C422.358 209.783 412.297 206.689 404.338 210.486C396.379 214.282 393.536 223.53 397.988 231.142Z" fill="#E8EDDF"/>
</g>
<path d="M224.963 349.624L450.494 242.051C455.812 239.515 457.711 233.336 454.737 228.25L370.877 84.8559C367.903 79.7702 361.181 77.7036 355.863 80.2399L130.333 187.813C125.015 190.349 123.115 196.528 126.09 201.613L209.95 345.008C212.924 350.094 219.646 352.16 224.963 349.624Z" stroke="#4E5C37"/>
<mask id="mask1_4_1324" style="mask-type:luminance" maskUnits="userSpaceOnUse" x="44" y="20" width="293" height="337">
<path d="M329.269 167.376L112.411 22.476C107.058 18.8994 101.108 20.9639 99.1208 27.0872L45.5979 192.01C43.6107 198.133 46.339 205.996 51.6918 209.573L268.55 354.473C273.903 358.049 279.853 355.985 281.84 349.861L335.363 184.939C337.35 178.816 334.622 170.952 329.269 167.376Z" fill="white"/>
</mask>
<g mask="url(#mask1_4_1324)">
<path d="M329.269 167.376L112.411 22.476C107.058 18.8994 101.108 20.9639 99.1208 27.0872L45.5979 192.01C43.6107 198.133 46.339 205.996 51.6918 209.573L268.55 354.473C273.903 358.049 279.853 355.985 281.84 349.861L335.363 184.939C337.35 178.816 334.622 170.952 329.269 167.376Z" fill="url(#paint1_linear_4_1324)" fill-opacity="0.75"/>
<path d="M114.998 54.2503C120.287 54.2103 123.25 56.2931 126.81 62.1429M115.986 58.0176C119.786 57.996 121.451 59.3143 123.861 63.2794M116.976 61.7835C119.238 61.6471 120.305 62.5657 121.822 65.0215" stroke="#E8EDDF" stroke-width="1.09279" stroke-linecap="round" stroke-linejoin="round"/>
<path d="M270.667 308.772C273.508 300.018 269.607 288.775 261.954 283.662C254.302 278.548 245.794 281.5 242.953 290.255C240.112 299.009 244.013 310.251 251.666 315.365C259.319 320.478 267.826 317.527 270.667 308.772Z" fill="#C0C0C0" fill-opacity="0.4"/>
<path d="M276.936 289.453C279.777 280.699 275.876 269.456 268.223 264.343C260.571 259.23 252.063 262.181 249.222 270.936C246.381 279.69 250.282 290.932 257.935 296.046C265.588 301.159 274.095 298.208 276.936 289.453Z" fill="#FBFFF5" fill-opacity="0.5"/>
<path d="M79.6218 180.683L76.9947 188.778C76.7463 189.544 76.9508 190.755 77.4515 191.485L86.0248 203.973C86.5255 204.702 87.1328 204.673 87.3812 203.908L90.0083 195.813C90.2567 195.047 90.0521 193.836 89.5514 193.106L80.9782 180.618C80.4774 179.889 79.8702 179.918 79.6218 180.683Z" fill="url(#paint2_linear_4_1324)"/>
<path d="M78.9564 165.306L73.1515 183.193C72.9031 183.959 73.1076 185.17 73.6083 185.9L80.8458 196.442C81.3466 197.172 81.9538 197.142 82.2022 196.377L88.0072 178.49C88.2556 177.725 88.0511 176.513 87.5503 175.783L80.3128 165.241C79.8121 164.511 79.2048 164.541 78.9564 165.306Z" fill="url(#paint3_linear_4_1324)"/>
</g>
<path d="M329.115 167.852L112.257 22.9516C107.134 19.5285 101.439 21.5044 99.5369 27.3651L46.014 192.287C44.1121 198.148 46.7233 205.674 51.8465 209.097L268.705 353.997C273.828 357.42 279.523 355.444 281.425 349.584L334.948 184.661C336.85 178.801 334.238 171.275 329.115 167.852Z" stroke="#597328"/>
<path d="M183 81C198.464 81 211 68.464 211 53C211 37.536 198.464 25 183 25C167.536 25 155 37.536 155 53C155 68.464 167.536 81 183 81Z" fill="#DCFD9E"/>
<path d="M188.746 54.2187V55.2203C188.746 57.995 188.074 60.6745 186.806 63.0795L186.576 63.5002L184.806 62.5246C185.981 60.4411 186.64 58.1072 186.713 55.6771L186.72 55.2203V54.2187H188.746ZM182.666 51.2136H184.693V55.2203L184.688 55.6C184.611 58.3422 183.657 60.9898 181.961 63.1616L181.727 63.4521L180.156 62.186C181.703 60.3187 182.583 57.9991 182.66 55.5869L182.666 55.2203V51.2136ZM183.68 47.2069C185.024 47.2069 186.312 47.7346 187.262 48.6738C188.213 49.6131 188.746 50.887 188.746 52.2153H186.72C186.72 51.4183 186.4 50.654 185.829 50.0904C185.259 49.5269 184.486 49.2103 183.68 49.2103C182.873 49.2103 182.1 49.5269 181.53 50.0904C180.96 50.654 180.64 51.4183 180.64 52.2153V55.2203C180.64 57.4591 179.809 59.5716 178.338 61.2074L178.124 61.4377L176.656 60.0554C177.842 58.8293 178.535 57.2185 178.607 55.5238L178.613 55.2203V52.2153C178.613 50.887 179.147 49.6131 180.097 48.6738C181.047 47.7346 182.336 47.2069 183.68 47.2069ZM183.68 43.2002C186.099 43.2002 188.418 44.15 190.129 45.8407C191.839 47.5313 192.8 49.8243 192.8 52.2153V55.2203C192.8 56.9212 192.595 58.596 192.195 60.2187L192.054 60.7586L190.098 60.2317C190.496 58.7923 190.719 57.3048 190.765 55.7893L190.773 55.2203V52.2153C190.773 50.914 190.407 49.6383 189.715 48.5311C189.023 47.4239 188.034 46.5288 186.857 45.946C185.679 45.3632 184.362 45.1157 183.05 45.2312C181.739 45.3467 180.486 45.8206 179.432 46.5999L177.988 45.1715C179.603 43.8926 181.611 43.1972 183.68 43.2002ZM176.554 46.5889L177.999 48.0163C177.13 49.1614 176.638 50.5431 176.59 51.9739L176.586 52.2153L176.59 54.2187C176.59 55.3405 176.323 56.4253 175.818 57.401L175.66 57.6915L173.9 56.6978C174.285 56.0317 174.51 55.2884 174.555 54.5111L174.564 54.2187V52.2153C174.558 50.1702 175.26 48.1847 176.554 46.5889Z" fill="#65744D"/>
<path d="M425 173C439.359 173 451 161.359 451 147C451 132.641 439.359 121 425 121C410.641 121 399 132.641 399 147C399 161.359 410.641 173 425 173Z" fill="#FBFFF5"/>
<path d="M425 135.95L433.308 137.784C433.533 137.834 433.734 137.958 433.877 138.136C434.021 138.315 434.1 138.536 434.1 138.765V148.797C434.1 149.79 433.853 150.766 433.382 151.641C432.911 152.516 432.229 153.262 431.398 153.812L425 158.05L418.602 153.812C417.771 153.262 417.089 152.516 416.618 151.642C416.147 150.767 415.9 149.79 415.9 148.798V138.765C415.9 138.536 415.978 138.315 416.122 138.136C416.266 137.958 416.467 137.834 416.692 137.784L425 135.95ZM425 138.009L417.922 139.571V148.797C417.922 149.459 418.087 150.11 418.401 150.693C418.715 151.276 419.169 151.774 419.723 152.14L425 155.636L430.277 152.14C430.831 151.774 431.285 151.277 431.599 150.694C431.913 150.111 432.078 149.46 432.078 148.798V139.571L425 138.009ZM425 141.977C425.445 141.977 425.878 142.123 426.231 142.392C426.585 142.661 426.839 143.039 426.954 143.466C427.069 143.893 427.04 144.346 426.869 144.755C426.699 145.164 426.398 145.505 426.012 145.726L426.011 150.014H423.989V145.726C423.603 145.505 423.302 145.164 423.132 144.755C422.961 144.347 422.931 143.894 423.047 143.467C423.162 143.039 423.416 142.662 423.769 142.393C424.122 142.123 424.555 141.977 425 141.977Z" fill="#849170"/>
<path d="M109 364C124.464 364 137 351.464 137 336C137 320.536 124.464 308 109 308C93.536 308 81 320.536 81 336C81 351.464 93.536 364 109 364Z" fill="#FBFFF5"/>
<path d="M100.215 326.9H118.485C118.754 326.9 119.012 327.006 119.202 327.196C119.393 327.386 119.5 327.643 119.5 327.911V344.089C119.5 344.357 119.393 344.614 119.202 344.804C119.012 344.993 118.754 345.1 118.485 345.1H100.215C99.9455 345.1 99.6873 344.993 99.497 344.804C99.3066 344.614 99.1997 344.357 99.1997 344.089V327.911C99.1997 327.643 99.3066 327.386 99.497 327.196C99.6873 327.006 99.9455 326.9 100.215 326.9ZM117.47 334.989H101.23V343.078H117.47V334.989ZM117.47 332.967V328.922H101.23V332.967H117.47ZM111.38 339.033H115.44V341.055H111.38V339.033Z" fill="#849170"/>
<path d="M66 156C95.2711 156 119 132.271 119 103C119 73.7289 95.2711 50 66 50C36.7289 50 13 73.7289 13 103C13 132.271 36.7289 156 66 156Z" fill="#E8EDDF" fill-opacity="0.05"/>
<path d="M66 155.64C95.072 155.64 118.64 132.072 118.64 103C118.64 73.9281 95.072 50.3606 66 50.3606C36.928 50.3606 13.3605 73.9281 13.3605 103C13.3605 132.072 36.928 155.64 66 155.64Z" stroke="#FBFFF5" stroke-width="0.721088"/>
<path d="M65.9999 129.32C80.5359 129.32 92.3196 117.536 92.3196 103C92.3196 88.4639 80.5359 76.6802 65.9999 76.6802C51.4639 76.6802 39.6802 88.4639 39.6802 103C39.6802 117.536 51.4639 129.32 65.9999 129.32Z" fill="#E8EDDF"/>
<path d="M65.3238 90.7704C65.5558 90.142 66.4445 90.142 66.6766 90.7704L67.8305 93.8946C68.003 94.3614 68.5852 94.5174 68.9679 94.1993L71.5293 92.0706C72.0445 91.6425 72.8141 92.0869 72.7009 92.7471L72.1381 96.0297C72.054 96.5201 72.4802 96.9463 72.9707 96.8622L76.2533 96.2995C76.9135 96.1863 77.3579 96.9559 76.9298 97.4711L74.8011 100.033C74.483 100.415 74.639 100.997 75.1058 101.17L78.23 102.324C78.8584 102.556 78.8584 103.445 78.23 103.677L75.1058 104.831C74.639 105.003 74.483 105.585 74.8011 105.968L76.9298 108.529C77.3579 109.044 76.9135 109.814 76.2533 109.701L72.9707 109.138C72.4802 109.054 72.054 109.48 72.1381 109.971L72.7009 113.253C72.8141 113.914 72.0445 114.358 71.5293 113.93L68.9679 111.801C68.5852 111.483 68.003 111.639 67.8305 112.106L66.6766 115.23C66.4445 115.858 65.5558 115.858 65.3238 115.23L64.1698 112.106C63.9974 111.639 63.4152 111.483 63.0325 111.801L60.4711 113.93C59.9559 114.358 59.1863 113.914 59.2995 113.253L59.8622 109.971C59.9463 109.48 59.5201 109.054 59.0297 109.138L55.7471 109.701C55.0869 109.814 54.6425 109.044 55.0706 108.529L57.1993 105.968C57.5174 105.585 57.3614 105.003 56.8946 104.831L53.7704 103.677C53.142 103.445 53.142 102.556 53.7704 102.324L56.8946 101.17C57.3614 100.997 57.5174 100.415 57.1993 100.033L55.0706 97.4711C54.6425 96.9559 55.0869 96.1863 55.7471 96.2995L59.0297 96.8622C59.5201 96.9463 59.9463 96.5201 59.8622 96.0297L59.2995 92.7471C59.1863 92.0869 59.9559 91.6425 60.4711 92.0706L63.0325 94.1993C63.4152 94.5174 63.9974 94.3614 64.1698 93.8946L65.3238 90.7704Z" fill="url(#paint4_linear_4_1324)"/>
<path d="M102.679 103.863L110.546 105.085L110.381 106.145L104.115 107.998L109.526 111.651L109.362 112.712L101.495 111.49L101.614 110.727L108.465 111.79L103.202 108.241L103.321 107.477L109.412 105.691L102.56 104.627L102.679 103.863Z" fill="#E7E4F2"/>
<path d="M101.095 114.319L107.043 120.004L106.495 121.2L98.3105 120.391L98.1908 120.209L98.4553 119.633L100.678 119.878L102.251 116.448L100.615 114.924L100.874 114.358L101.095 114.319ZM102.774 116.968L101.409 119.946L106.067 120.445L106.192 120.172L102.774 116.968Z" fill="#E7E4F2"/>
<path d="M103.036 126.548L103.593 126.978L99.7964 131.889L99.2395 131.459L100.905 129.305L95.1633 124.866L95.629 124.264L101.371 128.702L103.036 126.548Z" fill="#E7E4F2"/>
<path d="M91.8435 128.903L96.9385 135.02L93.0025 138.298L92.5521 137.758L95.8942 134.974L94.1589 132.891L91.0828 135.453L90.6397 134.921L93.7158 132.359L91.7 129.939L88.3579 132.722L87.9075 132.182L91.8435 128.903Z" fill="#E7E4F2"/>
<path d="M85.6988 133.862L89.2836 140.97L85.9459 142.653C84.9226 143.169 84.1529 142.916 83.6369 141.892L83.0706 140.77C82.6168 139.87 82.764 139.171 83.5122 138.673L80.7085 136.598L80.7129 136.376L81.2794 136.091L84.2383 138.268L86.484 137.136L85.0086 134.21L85.6988 133.862ZM86.7958 137.754L84.1071 139.11C83.5714 139.38 83.4404 139.786 83.714 140.329L84.379 141.647C84.6492 142.183 85.0521 142.316 85.5878 142.046L88.2764 140.69L86.7958 137.754Z" fill="#E7E4F2"/>
<path d="M77.7428 137.484L79.9702 145.127L79.2281 145.344L77.0006 137.701L77.7428 137.484Z" fill="#E7E4F2"/>
<path d="M74.3325 138.868L72.4361 146.875L71.1274 147.006L67.6859 139.537L67.7822 139.342L68.4136 139.278L69.3263 141.32L73.0801 140.942L73.5679 138.76L74.1878 138.697L74.3325 138.868ZM72.8968 141.657L69.6367 141.985L71.5621 146.255L71.8605 146.225L72.8968 141.657Z" fill="#E7E4F2"/>
<path d="M64.7605 139.414L63.7206 147.306L62.9542 147.205L63.9022 140.01L59.933 139.487L60.0249 138.79L64.7605 139.414Z" fill="#E7E4F2"/>
<path d="M49.9281 143.538L49.6042 144.163L44.0934 141.306L44.4173 140.681L46.8347 141.934L50.1744 135.491L50.8504 135.842L47.5107 142.285L49.9281 143.538Z" fill="#E7E4F2"/>
<path d="M45.6352 132.942L40.5179 139.04L36.5939 135.747L37.0463 135.208L40.3782 138.004L42.121 135.927L39.0542 133.353L39.4992 132.823L42.566 135.397L44.5906 132.984L41.2587 130.188L41.7111 129.649L45.6352 132.942Z" fill="#E7E4F2"/>
<path d="M39.6239 128.221L39.3402 128.438L37.1771 125.619C36.8119 125.143 36.3913 125.088 35.9153 125.453L35.1464 126.043C34.7497 126.347 34.6506 126.704 34.8489 127.115L35.9821 129.444C36.3596 130.202 36.173 130.868 35.4224 131.444L34.9464 131.809C34.0372 132.507 33.2337 132.401 32.5361 131.492L30.8084 129.24L30.8162 128.682L31.0999 128.464L33.1155 131.091C33.4854 131.573 33.9083 131.632 34.3843 131.266L35.0159 130.782C35.4187 130.473 35.5209 130.113 35.3226 129.703L34.1641 127.378C33.7974 126.622 33.9863 125.959 34.7308 125.387L35.3532 124.91C36.2625 124.212 37.0659 124.318 37.7636 125.227L39.6247 127.653L39.6239 128.221Z" fill="#E7E4F2"/>
<path d="M28.7391 125.114L28.1004 125.41L25.4921 119.777L26.1307 119.481L27.2749 121.952L33.8601 118.903L34.1801 119.594L27.5949 122.643L28.7391 125.114Z" fill="#E7E4F2"/>
<path d="M31.7813 115.014L23.622 113.955L23.3559 112.667L30.4296 108.472L30.6337 108.547L30.7621 109.169L28.8256 110.288L29.589 113.982L31.8104 114.242L31.9364 114.852L31.7813 115.014ZM28.8597 113.874L28.1967 110.665L24.1478 113.021L24.2085 113.315L28.8597 113.874Z" fill="#E7E4F2"/>
<path d="M30.1721 105.583L22.2198 105.214L22.3656 102.068C22.4511 100.224 23.4197 99.3447 25.2713 99.4305L27.6686 99.5416C29.5202 99.6274 30.4034 100.592 30.3179 102.436L30.1721 105.583ZM29.5049 104.778L29.617 102.358C29.6772 101.059 29.058 100.38 27.7596 100.32L25.1088 100.197C23.8103 100.137 23.131 100.756 23.0708 102.054L22.9586 104.475L29.5049 104.778Z" fill="#E7E4F2"/>
<path d="M29.0803 95.9682L24.763 94.6209C23.669 94.2795 23.2927 93.5618 23.6341 92.4678L24.4418 89.8796C24.7832 88.7856 25.5009 88.4093 26.5949 88.7507L30.9123 90.098C32.0063 90.4394 32.3826 91.1571 32.0412 92.2511L31.2335 94.8393C30.8921 95.9333 30.1744 96.3096 29.0803 95.9682ZM29.4208 95.2647C29.9935 95.4434 30.3703 95.2427 30.5513 94.6627L31.3831 91.9974C31.5618 91.4247 31.3648 91.049 30.7921 90.8703L26.2545 89.4542C25.6818 89.2755 25.3061 89.4725 25.1274 90.0452L24.2956 92.7105C24.1146 93.2905 24.3105 93.6699 24.8832 93.8486L29.4208 95.2647Z" fill="#E7E4F2"/>
<path d="M33.5885 81.7716L31.9041 80.5178L33.1096 78.8982L34.7941 80.1519L33.5885 81.7716Z" fill="#E7E4F2"/>
<path d="M42.0814 76.0467L39.8831 68.118L40.9662 67.3718L47.5823 72.2566L47.592 72.4741L47.0695 72.8341L45.2855 71.4853L42.1788 73.6258L42.8037 75.7732L42.2907 76.1267L42.0814 76.0467ZM41.9951 72.9117L44.6932 71.0527L40.9475 68.2394L40.7005 68.4095L41.9951 72.9117Z" fill="#E7E4F2"/>
<path d="M50.1524 70.9116L47.3278 63.4687L50.8227 62.1424C51.8942 61.7357 52.6333 62.0682 53.0399 63.1396L53.568 64.5311C53.9719 65.5954 53.6381 66.3309 52.5666 66.7375L49.7944 67.7896L50.8752 70.6373L50.1524 70.9116ZM49.5488 67.1424L52.3641 66.074C52.9251 65.8611 53.0977 65.4706 52.8821 64.9025L52.2763 63.3061C52.0634 62.7451 51.6765 62.5711 51.1156 62.784L48.3002 63.8524L49.5488 67.1424Z" fill="#E7E4F2"/>
<path d="M57.9642 68.0628L56.9546 60.1663L60.6626 59.6922C61.7994 59.5469 62.4405 60.0426 62.5858 61.1794L62.7453 62.4268C62.8731 63.4263 62.5013 64.036 61.6299 64.256L63.5814 67.1469L63.5032 67.3547L62.8738 67.4351L60.8103 64.3957L58.3154 64.7146L58.731 67.9648L57.9642 68.0628ZM58.2277 64.028L61.2146 63.6461C61.8097 63.57 62.0687 63.2306 61.9917 62.6279L61.8044 61.163C61.7283 60.5679 61.3927 60.3084 60.7976 60.3845L57.8107 60.7663L58.2277 64.028Z" fill="#E7E4F2"/>
<path d="M66.8818 65.3488L67.4381 60.8605C67.579 59.7231 68.2182 59.2249 69.3555 59.3659L72.0462 59.6994C73.1836 59.8404 73.6818 60.4795 73.5408 61.6169L72.9845 66.1052C72.8435 67.2425 72.2044 67.7407 71.067 67.5998L68.3763 67.2663C67.239 67.1253 66.7408 66.4861 66.8818 65.3488ZM67.6347 65.5584C67.5609 66.1538 67.8255 66.4888 68.4285 66.5636L71.1994 66.907C71.7948 66.9808 72.1294 66.72 72.2032 66.1246L72.7879 61.4073C72.8617 60.8119 72.6009 60.4773 72.0055 60.4035L69.2346 60.0601C68.6316 59.9853 68.2932 60.2457 68.2194 60.8411L67.6347 65.5584Z" fill="#E7E4F2"/>
<path d="M77.9037 60.8164L78.0888 60.6902L78.6803 60.9198L78.2703 68.5451L78.55 68.6536L83.3914 62.7482L83.9829 62.9778L84.0237 63.1917L78.8008 69.5059L77.5101 69.005L77.9037 60.8164Z" fill="#E7E4F2"/>
<path d="M83.3738 71.0532L90.0349 66.2236L91.1125 66.9777L88.8468 74.8835L88.6464 74.9686L88.1265 74.6047L88.7671 72.4619L85.6761 70.2987L83.8823 71.6345L83.3719 71.2773L83.3738 71.0532ZM86.281 69.8771L88.9655 71.7559L90.293 67.2633L90.0473 67.0913L86.281 69.8771Z" fill="#E7E4F2"/>
<path d="M90.8298 76.6104L96.834 71.3831L98.9022 73.7586C100.114 75.1509 100.021 76.4556 98.6233 77.6728L96.8133 79.2486C95.4153 80.4658 94.1102 80.3782 92.898 78.986L90.8298 76.6104ZM91.8682 76.7313L93.4591 78.5586C94.3127 79.539 95.2297 79.6024 96.21 78.7489L98.2114 77.0065C99.1918 76.1529 99.2552 75.236 98.4017 74.2556L96.8108 72.4282L91.8682 76.7313Z" fill="#E7E4F2"/>
<path d="M98.322 82.8829L102.375 80.8763C103.402 80.3679 104.17 80.6272 104.678 81.6543L105.881 84.0841C106.39 85.1112 106.131 85.8789 105.104 86.3874L101.05 88.394C100.023 88.9025 99.2555 88.6432 98.747 87.6161L97.5441 85.1862C97.0356 84.1592 97.2949 83.3914 98.322 82.8829ZM98.5616 83.6269C98.0239 83.8931 97.8899 84.2984 98.1595 84.843L99.3982 87.3452C99.6644 87.8829 100.066 88.0186 100.604 87.7524L104.864 85.6435C105.402 85.3773 105.537 84.9754 105.271 84.4377L104.032 81.9355C103.763 81.3909 103.359 81.2517 102.822 81.5179L98.5616 83.6269Z" fill="#E7E4F2"/>
<path d="M104.892 96.4117L106.977 96.1614L107.217 98.166L105.132 98.4163L104.892 96.4117Z" fill="#E7E4F2"/>
<path d="M443 328H281C271.059 328 263 336.059 263 346V382C263 391.941 271.059 400 281 400H443C452.941 400 461 391.941 461 382V346C461 336.059 452.941 328 443 328Z" fill="#FBFFF5"/>
<path d="M340.53 380V366.86H344.49C346.422 366.86 347.832 367.172 348.72 367.796C349.62 368.42 350.07 369.41 350.07 370.766C350.07 372.098 349.638 373.094 348.774 373.754C347.922 374.414 346.62 374.744 344.868 374.744H341.52V373.016H344.58C345.804 373.016 346.686 372.848 347.226 372.512C347.778 372.164 348.054 371.606 348.054 370.838C348.054 370.07 347.778 369.518 347.226 369.182C346.686 368.834 345.804 368.66 344.58 368.66H342.51V380H340.53ZM348.216 380L342.258 373.988H344.76L350.79 380H348.216ZM356.744 380.18C355.856 380.18 355.016 380.072 354.224 379.856C353.432 379.628 352.736 379.304 352.136 378.884L352.586 377.12C353.186 377.528 353.846 377.84 354.566 378.056C355.286 378.272 356.012 378.38 356.744 378.38C357.704 378.38 358.436 378.218 358.94 377.894C359.456 377.558 359.714 377.09 359.714 376.49C359.714 376.142 359.618 375.836 359.426 375.572C359.234 375.308 358.916 375.068 358.472 374.852C358.04 374.624 357.458 374.396 356.726 374.168C355.646 373.808 354.77 373.43 354.098 373.034C353.438 372.638 352.958 372.2 352.658 371.72C352.358 371.228 352.208 370.67 352.208 370.046C352.208 368.954 352.622 368.12 353.45 367.544C354.278 366.968 355.466 366.68 357.014 366.68C357.854 366.68 358.652 366.764 359.408 366.932C360.164 367.1 360.848 367.346 361.46 367.67L361.01 369.434C360.326 369.098 359.678 368.858 359.066 368.714C358.466 368.558 357.812 368.48 357.104 368.48C356.168 368.48 355.466 368.612 354.998 368.876C354.53 369.128 354.296 369.518 354.296 370.046C354.296 370.346 354.386 370.622 354.566 370.874C354.758 371.114 355.058 371.342 355.466 371.558C355.874 371.774 356.42 371.99 357.104 372.206C358.22 372.59 359.114 372.986 359.786 373.394C360.458 373.802 360.944 374.252 361.244 374.744C361.544 375.224 361.694 375.788 361.694 376.436C361.694 377.624 361.256 378.548 360.38 379.208C359.516 379.856 358.304 380.18 356.744 380.18ZM355.322 381.89V379.19H357.032V381.89H355.322ZM355.322 379.19V373.25H357.032V379.19H355.322ZM357.014 373.25V367.67H358.724V373.25H357.014ZM357.014 367.67V364.97H358.724V367.67H357.014ZM374.635 380V377.552H367.903V375.752L374.635 366.86H376.615V375.752H378.973V377.552H376.615V380H374.635ZM370.297 375.752H374.635V370.118H374.599L370.297 375.716V375.752ZM384.996 380.18C383.928 380.18 383.022 379.988 382.278 379.604C381.546 379.22 380.988 378.656 380.604 377.912C380.232 377.168 380.046 376.256 380.046 375.176C380.046 373.52 380.358 372.08 380.982 370.856C381.618 369.62 382.524 368.648 383.7 367.94C384.888 367.22 386.304 366.806 387.948 366.698L388.29 368.318C386.778 368.402 385.542 368.75 384.582 369.362C383.622 369.974 382.92 370.85 382.476 371.99L382.512 372.008C382.944 371.732 383.424 371.528 383.952 371.396C384.48 371.252 385.044 371.18 385.644 371.18C386.976 371.18 388.026 371.576 388.794 372.368C389.562 373.148 389.946 374.228 389.946 375.608C389.946 376.556 389.748 377.372 389.352 378.056C388.956 378.74 388.386 379.268 387.642 379.64C386.91 380 386.028 380.18 384.996 380.18ZM384.996 378.416C385.944 378.416 386.676 378.17 387.192 377.678C387.708 377.186 387.966 376.502 387.966 375.626C387.966 374.75 387.72 374.072 387.228 373.592C386.748 373.1 386.064 372.854 385.176 372.854C384.516 372.854 383.952 372.962 383.484 373.178C383.016 373.382 382.656 373.688 382.404 374.096C382.152 374.492 382.026 374.978 382.026 375.554C382.026 376.034 382.122 376.496 382.314 376.94C382.506 377.372 382.818 377.726 383.25 378.002C383.694 378.278 384.276 378.416 384.996 378.416ZM395.898 380.18C395.142 380.18 394.464 380.108 393.864 379.964C393.264 379.808 392.676 379.58 392.1 379.28L392.64 377.57C393.228 377.87 393.762 378.086 394.242 378.218C394.734 378.35 395.256 378.416 395.808 378.416C396.912 378.416 397.764 378.182 398.364 377.714C398.964 377.246 399.264 376.58 399.264 375.716C399.264 374.936 399.024 374.342 398.544 373.934C398.064 373.526 397.38 373.322 396.492 373.322C396.024 373.322 395.628 373.388 395.304 373.52C394.98 373.652 394.662 373.874 394.35 374.186H392.478L392.91 366.86H400.668V368.624H394.692L394.476 372.152H394.512C394.884 371.96 395.25 371.822 395.61 371.738C395.97 371.654 396.372 371.612 396.816 371.612C398.22 371.612 399.312 371.978 400.092 372.71C400.884 373.442 401.28 374.462 401.28 375.77C401.28 377.186 400.812 378.278 399.876 379.046C398.952 379.802 397.626 380.18 395.898 380.18ZM403.11 383.06L404.37 377.66H406.71L404.91 383.06H403.11ZM413.754 380.18C412.026 380.18 410.736 379.628 409.884 378.524C409.044 377.408 408.624 375.71 408.624 373.43C408.624 371.15 409.044 369.458 409.884 368.354C410.736 367.238 412.026 366.68 413.754 366.68C415.482 366.68 416.766 367.238 417.606 368.354C418.458 369.458 418.884 371.15 418.884 373.43C418.884 375.71 418.458 377.408 417.606 378.524C416.766 379.628 415.482 380.18 413.754 380.18ZM413.754 378.38C414.822 378.38 415.602 377.978 416.094 377.174C416.598 376.37 416.85 375.122 416.85 373.43C416.85 371.726 416.598 370.478 416.094 369.686C415.602 368.882 414.822 368.48 413.754 368.48C412.698 368.48 411.918 368.882 411.414 369.686C410.91 370.478 410.658 371.726 410.658 373.43C410.658 375.122 410.91 376.37 411.414 377.174C411.918 377.978 412.698 378.38 413.754 378.38ZM425.268 380.18C423.54 380.18 422.25 379.628 421.398 378.524C420.558 377.408 420.138 375.71 420.138 373.43C420.138 371.15 420.558 369.458 421.398 368.354C422.25 367.238 423.54 366.68 425.268 366.68C426.996 366.68 428.28 367.238 429.12 368.354C429.972 369.458 430.398 371.15 430.398 373.43C430.398 375.71 429.972 377.408 429.12 378.524C428.28 379.628 426.996 380.18 425.268 380.18ZM425.268 378.38C426.336 378.38 427.116 377.978 427.608 377.174C428.112 376.37 428.364 375.122 428.364 373.43C428.364 371.726 428.112 370.478 427.608 369.686C427.116 368.882 426.336 368.48 425.268 368.48C424.212 368.48 423.432 368.882 422.928 369.686C422.424 370.478 422.172 371.726 422.172 373.43C422.172 375.122 422.424 376.37 422.928 377.174C423.432 377.978 424.212 378.38 425.268 378.38Z" fill="#515D3D"/>
<path d="M340.078 355V345.2H341.156V355H340.078ZM343.122 355V347.986H344.158V348.812C344.709 348.168 345.446 347.846 346.37 347.846C346.902 347.846 347.369 347.963 347.77 348.196C348.181 348.42 348.498 348.737 348.722 349.148C348.956 349.549 349.072 350.021 349.072 350.562V355H348.05V350.772C348.05 350.147 347.873 349.657 347.518 349.302C347.173 348.938 346.697 348.756 346.09 348.756C345.67 348.756 345.297 348.849 344.97 349.036C344.644 349.223 344.373 349.489 344.158 349.834V355H343.122ZM352.69 355L349.652 347.986H350.8L353.194 353.656L355.588 347.986H356.694L353.67 355H352.69ZM360.727 355.126C360.055 355.126 359.443 354.967 358.893 354.65C358.351 354.323 357.917 353.885 357.591 353.334C357.273 352.783 357.115 352.167 357.115 351.486C357.115 350.814 357.269 350.207 357.577 349.666C357.885 349.115 358.3 348.681 358.823 348.364C359.345 348.037 359.929 347.874 360.573 347.874C361.198 347.874 361.758 348.037 362.253 348.364C362.757 348.681 363.153 349.115 363.443 349.666C363.741 350.207 363.891 350.814 363.891 351.486V351.808H358.137C358.193 352.265 358.337 352.676 358.571 353.04C358.813 353.404 359.126 353.693 359.509 353.908C359.891 354.113 360.311 354.216 360.769 354.216C361.133 354.216 361.487 354.16 361.833 354.048C362.178 353.936 362.467 353.777 362.701 353.572L363.345 354.258C362.953 354.547 362.542 354.767 362.113 354.916C361.693 355.056 361.231 355.126 360.727 355.126ZM358.165 350.982H362.855C362.799 350.562 362.659 350.189 362.435 349.862C362.22 349.526 361.949 349.265 361.623 349.078C361.296 348.882 360.937 348.784 360.545 348.784C360.143 348.784 359.775 348.877 359.439 349.064C359.103 349.251 358.823 349.512 358.599 349.848C358.375 350.175 358.23 350.553 358.165 350.982ZM367.647 355.14C367.069 355.14 366.523 355.047 366.009 354.86C365.505 354.664 365.067 354.393 364.693 354.048L365.323 353.376C365.65 353.675 366.009 353.908 366.401 354.076C366.793 354.235 367.195 354.314 367.605 354.314C368.165 354.314 368.623 354.197 368.977 353.964C369.332 353.731 369.509 353.427 369.509 353.054C369.509 352.746 369.402 352.508 369.187 352.34C368.982 352.163 368.655 352.041 368.207 351.976L366.989 351.808C366.289 351.705 365.767 351.495 365.421 351.178C365.085 350.861 364.917 350.431 364.917 349.89C364.917 349.498 365.029 349.148 365.253 348.84C365.477 348.532 365.785 348.289 366.177 348.112C366.579 347.935 367.036 347.846 367.549 347.846C368.063 347.846 368.543 347.921 368.991 348.07C369.439 348.219 369.878 348.453 370.307 348.77L369.761 349.47C369.369 349.199 368.987 349.003 368.613 348.882C368.249 348.751 367.876 348.686 367.493 348.686C367.008 348.686 366.616 348.793 366.317 349.008C366.019 349.223 365.869 349.503 365.869 349.848C365.869 350.165 365.972 350.408 366.177 350.576C366.383 350.735 366.714 350.847 367.171 350.912L368.389 351.08C369.089 351.173 369.612 351.379 369.957 351.696C370.312 352.013 370.489 352.447 370.489 352.998C370.489 353.399 370.363 353.763 370.111 354.09C369.859 354.417 369.519 354.673 369.089 354.86C368.669 355.047 368.189 355.14 367.647 355.14ZM374.277 355.14C373.67 355.14 373.203 354.995 372.877 354.706C372.55 354.417 372.387 353.997 372.387 353.446V348.868H370.875V347.986H372.387V346.208L373.409 345.942V347.986H375.523V348.868H373.409V353.18C373.409 353.553 373.493 353.824 373.661 353.992C373.829 354.151 374.104 354.23 374.487 354.23C374.683 354.23 374.855 354.216 375.005 354.188C375.163 354.16 375.331 354.113 375.509 354.048V354.958C375.331 355.023 375.131 355.07 374.907 355.098C374.692 355.126 374.482 355.14 374.277 355.14ZM376.632 355V347.986H377.668V355H376.632ZM377.15 346.642C376.963 346.642 376.8 346.572 376.66 346.432C376.52 346.292 376.45 346.129 376.45 345.942C376.45 345.746 376.52 345.583 376.66 345.452C376.8 345.312 376.963 345.242 377.15 345.242C377.346 345.242 377.509 345.312 377.64 345.452C377.78 345.583 377.85 345.746 377.85 345.942C377.85 346.129 377.78 346.292 377.64 346.432C377.509 346.572 377.346 346.642 377.15 346.642ZM379.435 355V347.986H380.471V348.756C381.003 348.149 381.689 347.846 382.529 347.846C383.023 347.846 383.462 347.963 383.845 348.196C384.227 348.42 384.526 348.728 384.741 349.12C385.03 348.691 385.375 348.373 385.777 348.168C386.178 347.953 386.635 347.846 387.149 347.846C387.662 347.846 388.11 347.963 388.493 348.196C388.875 348.42 389.174 348.737 389.389 349.148C389.613 349.549 389.725 350.021 389.725 350.562V355H388.703V350.772C388.703 350.147 388.539 349.657 388.213 349.302C387.886 348.938 387.443 348.756 386.883 348.756C386.5 348.756 386.15 348.854 385.833 349.05C385.515 349.237 385.245 349.521 385.021 349.904C385.039 350.007 385.053 350.114 385.063 350.226C385.081 350.329 385.091 350.441 385.091 350.562V355H384.069V350.772C384.069 350.147 383.905 349.657 383.579 349.302C383.252 348.938 382.813 348.756 382.263 348.756C381.889 348.756 381.549 348.845 381.241 349.022C380.942 349.19 380.685 349.442 380.471 349.778V355H379.435ZM394.756 355.126C394.084 355.126 393.473 354.967 392.922 354.65C392.381 354.323 391.947 353.885 391.62 353.334C391.303 352.783 391.144 352.167 391.144 351.486C391.144 350.814 391.298 350.207 391.606 349.666C391.914 349.115 392.329 348.681 392.852 348.364C393.375 348.037 393.958 347.874 394.602 347.874C395.227 347.874 395.787 348.037 396.282 348.364C396.786 348.681 397.183 349.115 397.472 349.666C397.771 350.207 397.92 350.814 397.92 351.486V351.808H392.166C392.222 352.265 392.367 352.676 392.6 353.04C392.843 353.404 393.155 353.693 393.538 353.908C393.921 354.113 394.341 354.216 394.798 354.216C395.162 354.216 395.517 354.16 395.862 354.048C396.207 353.936 396.497 353.777 396.73 353.572L397.374 354.258C396.982 354.547 396.571 354.767 396.142 354.916C395.722 355.056 395.26 355.126 394.756 355.126ZM392.194 350.982H396.884C396.828 350.562 396.688 350.189 396.464 349.862C396.249 349.526 395.979 349.265 395.652 349.078C395.325 348.882 394.966 348.784 394.574 348.784C394.173 348.784 393.804 348.877 393.468 349.064C393.132 349.251 392.852 349.512 392.628 349.848C392.404 350.175 392.259 350.553 392.194 350.982ZM399.368 355V347.986H400.404V348.812C400.955 348.168 401.692 347.846 402.616 347.846C403.148 347.846 403.615 347.963 404.016 348.196C404.427 348.42 404.744 348.737 404.968 349.148C405.202 349.549 405.318 350.021 405.318 350.562V355H404.296V350.772C404.296 350.147 404.119 349.657 403.764 349.302C403.419 348.938 402.943 348.756 402.336 348.756C401.916 348.756 401.543 348.849 401.216 349.036C400.89 349.223 400.619 349.489 400.404 349.834V355H399.368ZM409.605 355.14C408.998 355.14 408.532 354.995 408.205 354.706C407.878 354.417 407.715 353.997 407.715 353.446V348.868H406.203V347.986H407.715V346.208L408.737 345.942V347.986H410.851V348.868H408.737V353.18C408.737 353.553 408.821 353.824 408.989 353.992C409.157 354.151 409.432 354.23 409.815 354.23C410.011 354.23 410.184 354.216 410.333 354.188C410.492 354.16 410.66 354.113 410.837 354.048V354.958C410.66 355.023 410.459 355.07 410.235 355.098C410.02 355.126 409.81 355.14 409.605 355.14ZM415.085 355.14C414.423 355.14 413.816 354.981 413.265 354.664C412.724 354.337 412.295 353.899 411.977 353.348C411.66 352.797 411.501 352.181 411.501 351.5C411.501 350.819 411.66 350.203 411.977 349.652C412.295 349.101 412.724 348.667 413.265 348.35C413.816 348.023 414.423 347.86 415.085 347.86C415.757 347.86 416.364 348.023 416.905 348.35C417.447 348.667 417.876 349.101 418.193 349.652C418.511 350.203 418.669 350.819 418.669 351.5C418.669 352.181 418.511 352.797 418.193 353.348C417.876 353.899 417.447 354.337 416.905 354.664C416.364 354.981 415.757 355.14 415.085 355.14ZM415.085 354.216C415.561 354.216 415.991 354.095 416.373 353.852C416.765 353.609 417.073 353.283 417.297 352.872C417.531 352.461 417.647 352.004 417.647 351.5C417.647 350.987 417.531 350.529 417.297 350.128C417.073 349.717 416.765 349.391 416.373 349.148C415.991 348.905 415.561 348.784 415.085 348.784C414.609 348.784 414.175 348.905 413.783 349.148C413.401 349.391 413.093 349.717 412.859 350.128C412.635 350.529 412.523 350.987 412.523 351.5C412.523 352.004 412.635 352.461 412.859 352.872C413.093 353.283 413.401 353.609 413.783 353.852C414.175 354.095 414.609 354.216 415.085 354.216Z" fill="#7C7C7D"/>
<path d="M301 388C314.255 388 325 377.255 325 364C325 350.745 314.255 340 301 340C287.745 340 277 350.745 277 364C277 377.255 287.745 388 301 388Z" fill="#A9C96B" fill-opacity="0.4"/>
<path d="M295.604 357V369.444H308.433V371H294V357H295.604ZM307.866 359.561L309 360.661L304.424 365.1L302.018 362.767L298.576 366.105L297.442 365.006L302.018 360.567L304.424 362.899L307.866 359.561Z" fill="#65744D"/>
<path d="M220.642 292.806L214.436 288.962L216.078 284.451L216.911 284.967L215.645 288.444L217.363 289.508L218.56 286.219L219.376 286.725L218.179 290.014L220.185 291.256L221.45 287.779L222.284 288.296L220.642 292.806ZM222.806 286.86L216.6 283.015L217.284 281.136C217.725 279.927 218.306 279.189 219.028 278.922C219.752 278.649 220.639 278.838 221.687 279.487C222.735 280.137 223.408 280.914 223.703 281.819C224.001 282.717 223.93 283.771 223.49 284.98L222.806 286.86ZM222.664 284.388C222.872 283.818 222.964 283.307 222.941 282.855C222.914 282.393 222.765 281.974 222.492 281.598C222.221 281.215 221.825 280.863 221.304 280.54C220.777 280.213 220.317 280.036 219.925 280.008C219.529 279.97 219.188 280.085 218.903 280.353C218.614 280.612 218.366 281.027 218.159 281.597L217.827 282.508L222.332 285.299L222.664 284.388ZM226.277 277.609C225.953 278.499 225.52 279.06 224.977 279.291C224.429 279.52 223.795 279.411 223.075 278.965L218.995 276.437L219.371 275.404L223.281 277.826C223.814 278.156 224.251 278.262 224.593 278.144C224.935 278.025 225.213 277.672 225.427 277.083C225.641 276.494 225.676 275.989 225.53 275.569C225.384 275.148 225.045 274.773 224.513 274.443L220.602 272.021L220.978 270.987L225.059 273.515C225.779 273.961 226.244 274.533 226.455 275.232C226.662 275.921 226.603 276.713 226.277 277.609ZM227.426 274.166L222.13 267.822L222.64 266.422L229.752 267.776L229.338 268.913L223.186 267.612L223.179 267.631L227.84 273.029L227.426 274.166ZM226.343 271.905L225.493 271.379L226.878 267.573L227.728 268.1L226.343 271.905ZM230.087 266.854L223.882 263.01L224.634 260.943C225.001 259.934 225.417 259.289 225.88 259.008C226.346 258.721 226.899 258.776 227.539 259.172C228.168 259.562 228.557 260.079 228.704 260.723C228.854 261.361 228.762 262.137 228.429 263.052L227.793 264.8L226.977 264.294L227.559 262.697C227.791 262.058 227.879 261.548 227.823 261.168C227.764 260.778 227.553 260.471 227.19 260.246C226.827 260.021 226.514 260.004 226.251 260.194C225.984 260.374 225.734 260.783 225.501 261.422L225.108 262.503L230.464 265.821L230.087 266.854ZM231.548 262.842L227.576 264.193L228.052 262.887L232.037 261.498L231.548 262.842ZM232.446 260.376L226.24 256.531L226.924 254.652C227.364 253.443 227.945 252.705 228.667 252.438C229.391 252.166 230.278 252.354 231.326 253.003C232.375 253.653 233.047 254.43 233.343 255.335C233.641 256.233 233.57 257.287 233.13 258.496L232.446 260.376ZM232.303 257.904C232.511 257.334 232.603 256.823 232.58 256.371C232.554 255.909 232.404 255.49 232.131 255.114C231.861 254.732 231.465 254.379 230.943 254.056C230.416 253.729 229.956 253.552 229.564 253.524C229.168 253.486 228.827 253.601 228.542 253.87C228.253 254.128 228.005 254.543 227.798 255.113L227.466 256.024L231.972 258.815L232.303 257.904ZM236.124 250.554C235.864 251.268 235.507 251.811 235.053 252.182C234.6 252.547 234.084 252.726 233.503 252.719C232.916 252.709 232.3 252.504 231.654 252.103C231.002 251.7 230.491 251.206 230.12 250.623C229.748 250.04 229.528 249.405 229.459 248.717C229.392 248.023 229.489 247.319 229.749 246.605C230.011 245.884 230.368 245.342 230.82 244.977C231.273 244.612 231.789 244.433 232.37 244.44C232.951 244.447 233.567 244.652 234.219 245.056C234.865 245.456 235.377 245.949 235.753 246.536C236.125 247.119 236.345 247.754 236.414 248.442C236.483 249.13 236.387 249.834 236.124 250.554ZM235.274 250.028C235.459 249.52 235.525 249.024 235.473 248.538C235.414 248.049 235.248 247.601 234.973 247.192C234.694 246.774 234.314 246.416 233.833 246.117C233.351 245.819 232.901 245.663 232.482 245.649C232.06 245.626 231.688 245.741 231.367 245.995C231.039 246.245 230.783 246.624 230.599 247.131C230.414 247.639 230.351 248.137 230.409 248.626C230.461 249.111 230.627 249.563 230.905 249.981C231.18 250.39 231.559 250.743 232.04 251.041C232.522 251.34 232.974 251.501 233.396 251.524C233.815 251.538 234.188 251.42 234.515 251.169C234.836 250.916 235.09 250.535 235.274 250.028ZM238.472 243.818L233.176 237.475L233.686 236.074L240.798 237.429L240.384 238.566L234.232 237.265L234.225 237.284L238.886 242.681L238.472 243.818ZM237.388 241.558L236.538 241.031L237.923 237.226L238.773 237.752L237.388 241.558ZM243.384 230.609C243.103 231.38 242.734 231.965 242.276 232.364C241.821 232.757 241.3 232.957 240.714 232.963C240.131 232.962 239.508 232.757 238.845 232.346C238.182 231.935 237.666 231.435 237.297 230.846C236.928 230.256 236.715 229.61 236.659 228.907C236.602 228.204 236.712 227.474 236.988 226.716C237.138 226.302 237.324 225.934 237.546 225.611C237.762 225.284 238.006 225.024 238.278 224.832L238.996 225.576C238.751 225.754 238.53 225.99 238.333 226.282C238.13 226.572 237.965 226.891 237.838 227.242C237.644 227.775 237.571 228.29 237.619 228.788C237.663 229.276 237.824 229.733 238.1 230.157C238.373 230.572 238.756 230.932 239.249 231.237C239.742 231.543 240.2 231.704 240.625 231.721C241.046 231.728 241.42 231.596 241.749 231.323C242.071 231.047 242.333 230.634 242.534 230.082C242.641 229.788 242.72 229.484 242.772 229.17C242.818 228.853 242.83 228.554 242.808 228.271L243.081 228.636L241.049 227.378L240.211 229.68L239.412 229.185L240.626 225.849L243.806 227.819C243.838 228.245 243.816 228.708 243.739 229.205C243.664 229.696 243.546 230.164 243.384 230.609ZM244.481 227.31L239.185 220.966L239.694 219.566L246.806 220.92L246.392 222.057L240.24 220.756L240.233 220.775L244.894 226.173L244.481 227.31ZM243.397 225.049L242.547 224.522L243.932 220.717L244.782 221.243L243.397 225.049ZM247.142 219.998L240.936 216.154L241.688 214.087C242.056 213.078 242.471 212.433 242.934 212.152C243.4 211.865 243.953 211.92 244.593 212.316C245.222 212.706 245.611 213.223 245.758 213.867C245.908 214.505 245.817 215.281 245.484 216.196L244.848 217.944L244.031 217.438L244.613 215.841C244.845 215.202 244.934 214.692 244.878 214.312C244.818 213.922 244.607 213.615 244.244 213.39C243.882 213.165 243.568 213.148 243.305 213.338C243.038 213.518 242.788 213.927 242.556 214.566L242.162 215.647L247.518 218.965L247.142 219.998ZM248.602 215.986L244.631 217.337L245.106 216.031L249.091 214.642L248.602 215.986ZM250.707 210.488C250.438 211.227 250.078 211.787 249.627 212.168C249.178 212.542 248.663 212.726 248.082 212.719C247.504 212.706 246.883 212.495 246.22 212.084C245.557 211.673 245.039 211.179 244.665 210.602C244.294 210.019 244.078 209.383 244.016 208.692C243.958 207.995 244.063 207.277 244.332 206.538C244.639 205.692 245.083 205.046 245.663 204.599L246.403 205.369C245.844 205.798 245.442 206.351 245.195 207.027C245.006 207.547 244.936 208.056 244.983 208.554C245.031 209.052 245.193 209.513 245.47 209.938C245.742 210.352 246.122 210.711 246.61 211.013C247.091 211.311 247.545 211.469 247.969 211.486C248.395 211.497 248.772 211.369 249.098 211.103C249.424 210.837 249.682 210.444 249.871 209.924C250.11 209.266 250.184 208.509 250.093 207.654L251.018 207.917C251.119 208.785 251.015 209.642 250.707 210.488ZM251.939 206.819L245.733 202.974L246.123 201.903L252.329 205.747L251.939 206.819ZM252.694 204.744L247.398 198.4L247.907 197L255.019 198.354L254.606 199.491L248.453 198.19L248.447 198.209L253.108 203.607L252.694 204.744ZM251.61 202.484L250.76 201.957L252.145 198.151L252.995 198.678L251.61 202.484Z" fill="white"/>
<defs>
<linearGradient id="paint0_linear_4_1324" x1="246.754" y1="349.442" x2="251.713" y2="75.8747" gradientUnits="userSpaceOnUse">
<stop stop-color="#3E4F1D"/>
<stop offset="1" stop-color="#596643"/>
</linearGradient>
<linearGradient id="paint1_linear_4_1324" x1="315.625" y1="147.689" x2="98.0653" y2="286.076" gradientUnits="userSpaceOnUse">
<stop stop-color="#BBE768"/>
<stop offset="1" stop-color="#496022"/>
</linearGradient>
<linearGradient id="paint2_linear_4_1324" x1="78.3082" y1="184.731" x2="92.1472" y2="189.222" gradientUnits="userSpaceOnUse">
<stop stop-color="#F3FAE6" stop-opacity="0"/>
<stop offset="1" stop-color="#F3FAE6"/>
</linearGradient>
<linearGradient id="paint3_linear_4_1324" x1="77.3126" y1="164.689" x2="95.4109" y2="189.419" gradientUnits="userSpaceOnUse">
<stop stop-color="#ECF5DC"/>
<stop offset="1" stop-color="#ECF5DC" stop-opacity="0"/>
</linearGradient>
<linearGradient id="paint4_linear_4_1324" x1="76.9479" y1="87.6333" x2="53.9477" y2="118.066" gradientUnits="userSpaceOnUse">
<stop stop-color="#BBE768"/>
<stop offset="1" stop-color="#496022"/>
</linearGradient>
</defs>
</svg>
