<svg width="478" height="348" viewBox="0 0 478 348" fill="none" xmlns="http://www.w3.org/2000/svg">
<g clip-path="url(#clip0_4_1298)">
<mask id="mask0_4_1298" style="mask-type:luminance" maskUnits="userSpaceOnUse" x="0" y="0" width="478" height="348">
<path d="M478 0H0V348H478V0Z" fill="white"/>
</mask>
<g mask="url(#mask0_4_1298)">
<mask id="mask1_4_1298" style="mask-type:luminance" maskUnits="userSpaceOnUse" x="150" y="54" width="302" height="262">
<path d="M278.969 56.4617L154.376 137.7C149.75 140.717 149.106 146.386 152.937 150.364L308.146 311.505C311.977 315.482 318.832 316.262 323.458 313.245L448.051 232.006C452.677 228.99 453.322 223.321 449.49 219.343L294.282 58.2021C290.451 54.2246 283.595 53.4454 278.969 56.4617Z" fill="white"/>
</mask>
<g mask="url(#mask1_4_1298)">
<path d="M278.969 56.4617L154.376 137.7C149.75 140.717 149.106 146.386 152.937 150.364L308.146 311.505C311.977 315.482 318.832 316.262 323.458 313.245L448.051 232.006C452.677 228.99 453.322 223.321 449.49 219.343L294.282 58.2021C290.451 54.2246 283.595 53.4454 278.969 56.4617Z" fill="url(#paint0_linear_4_1298)"/>
<path d="M177.933 122.34L146 143.162L315.082 318.707L347.016 297.885L177.933 122.34Z" fill="#A9C96B" fill-opacity="0.5"/>
<path d="M288.972 136.941C288.76 137.079 288.52 137.165 288.252 137.199C287.986 137.224 287.726 137.195 287.471 137.11C287.217 137.026 287 136.89 286.82 136.703C286.63 136.506 286.514 136.296 286.473 136.073C286.436 135.847 286.466 135.632 286.561 135.429C286.652 135.221 286.804 135.048 287.016 134.91C287.234 134.768 287.476 134.684 287.742 134.659C288.004 134.629 288.262 134.656 288.516 134.741C288.776 134.821 289.001 134.96 289.19 135.157C289.371 135.344 289.479 135.551 289.515 135.778C289.557 136 289.533 136.216 289.442 136.423C289.346 136.626 289.19 136.799 288.972 136.941ZM291.892 135.037C291.68 135.175 291.44 135.261 291.173 135.295C290.906 135.32 290.646 135.291 290.392 135.206C290.138 135.122 289.92 134.986 289.74 134.799C289.55 134.602 289.435 134.392 289.393 134.169C289.356 133.943 289.386 133.728 289.481 133.525C289.572 133.317 289.724 133.144 289.936 133.006C290.154 132.864 290.396 132.78 290.662 132.755C290.924 132.725 291.182 132.752 291.436 132.836C291.696 132.917 291.921 133.056 292.11 133.253C292.291 133.44 292.399 133.647 292.435 133.874C292.477 134.096 292.453 134.312 292.362 134.519C292.266 134.722 292.11 134.895 291.892 135.037ZM294.812 133.133C294.6 133.271 294.36 133.357 294.093 133.391C293.826 133.416 293.566 133.387 293.312 133.302C293.058 133.218 292.84 133.082 292.66 132.895C292.47 132.698 292.355 132.488 292.313 132.265C292.277 132.039 292.306 131.824 292.402 131.621C292.492 131.413 292.644 131.24 292.856 131.102C293.074 130.96 293.316 130.876 293.583 130.851C293.844 130.821 294.102 130.848 294.357 130.932C294.616 131.013 294.841 131.152 295.03 131.349C295.211 131.536 295.319 131.743 295.355 131.97C295.397 132.192 295.373 132.408 295.282 132.615C295.187 132.818 295.03 132.991 294.812 133.133ZM297.732 131.229C297.52 131.367 297.28 131.453 297.013 131.487C296.746 131.512 296.486 131.483 296.232 131.398C295.978 131.314 295.761 131.178 295.58 130.991C295.391 130.794 295.275 130.584 295.233 130.361C295.197 130.135 295.226 129.92 295.322 129.717C295.413 129.509 295.564 129.336 295.776 129.198C295.994 129.056 296.236 128.972 296.503 128.947C296.765 128.917 297.023 128.944 297.277 129.028C297.536 129.109 297.761 129.248 297.951 129.445C298.131 129.632 298.239 129.839 298.276 130.065C298.317 130.288 298.293 130.504 298.202 130.711C298.107 130.914 297.95 131.087 297.732 131.229ZM306.265 128.139C306.125 128.23 305.968 128.266 305.795 128.246C305.617 128.222 305.467 128.147 305.347 128.022L302.087 124.637L302.298 124.559L302.339 127.334L302.207 127.268L305.172 125.334C305.306 125.247 305.455 125.213 305.618 125.231C305.781 125.25 305.918 125.317 306.029 125.432C306.136 125.542 306.181 125.665 306.166 125.8C306.146 125.93 306.069 126.039 305.935 126.127L302.275 128.513C302.157 128.59 302.004 128.623 301.813 128.615C301.629 128.602 301.478 128.536 301.363 128.416C301.261 128.31 301.21 128.187 301.211 128.046L301.173 123.533C301.167 123.451 301.186 123.372 301.231 123.296C301.271 123.215 301.336 123.145 301.426 123.087C301.571 122.992 301.73 122.959 301.902 122.987C302.076 123.007 302.223 123.079 302.343 123.204L306.352 127.367C306.473 127.492 306.524 127.63 306.507 127.782C306.49 127.926 306.41 128.045 306.265 128.139ZM311.004 123.76C311.138 123.672 311.286 123.638 311.45 123.656C311.613 123.675 311.75 123.742 311.861 123.857C311.967 123.968 312.013 124.09 311.998 124.225C311.978 124.356 311.901 124.464 311.767 124.552L308.919 126.409C308.774 126.503 308.622 126.54 308.464 126.517C308.307 126.495 308.17 126.424 308.054 126.304C307.939 126.184 307.887 126.046 307.9 125.889L308.11 123.02C308.131 122.693 308.104 122.391 308.027 122.113C307.955 121.831 307.848 121.616 307.705 121.467C307.473 121.227 307.207 121.088 306.907 121.049C306.601 121.006 306.315 121.072 306.047 121.247C305.941 121.316 305.853 121.408 305.782 121.524C305.712 121.64 305.661 121.771 305.629 121.917C305.603 122.06 305.593 122.21 305.601 122.37C305.608 122.49 305.587 122.582 305.539 122.645C305.49 122.708 305.438 122.757 305.382 122.794C305.259 122.874 305.108 122.91 304.928 122.902C304.749 122.886 304.608 122.825 304.507 122.72C304.428 122.638 304.382 122.539 304.37 122.422C304.363 122.301 304.367 122.169 304.384 122.026C304.408 121.815 304.462 121.607 304.548 121.403C304.633 121.199 304.744 121.013 304.883 120.845C305.016 120.672 305.169 120.529 305.342 120.416C305.716 120.172 306.103 120.026 306.501 119.977C306.901 119.92 307.289 119.96 307.666 120.097C308.039 120.229 308.378 120.453 308.683 120.77C308.938 121.034 309.13 121.39 309.26 121.836C309.391 122.274 309.44 122.735 309.405 123.219L309.274 124.993L309.119 124.988L311.004 123.76ZM314.787 122.7C314.581 122.834 314.335 122.952 314.049 123.052C313.759 123.147 313.488 123.191 313.235 123.184C313.112 123.178 312.989 123.149 312.865 123.097C312.743 123.036 312.645 122.967 312.571 122.89C312.492 122.809 312.457 122.706 312.466 122.583C312.48 122.457 312.563 122.344 312.714 122.246C312.814 122.18 312.984 122.144 313.223 122.137C313.358 122.127 313.497 122.106 313.641 122.075C313.784 122.045 313.911 121.993 314.023 121.92C314.291 121.745 314.483 121.553 314.6 121.344C314.712 121.13 314.75 120.915 314.712 120.697C314.675 120.478 314.559 120.269 314.365 120.067C314.189 119.885 313.989 119.761 313.763 119.697C313.544 119.629 313.318 119.612 313.087 119.646C312.861 119.676 312.656 119.751 312.472 119.871C312.299 119.984 312.171 120.106 312.089 120.238C312.007 120.37 311.938 120.497 311.883 120.619C311.823 120.736 311.74 120.829 311.634 120.898C311.45 121.018 311.28 121.074 311.126 121.065C310.968 121.051 310.831 121.004 310.716 120.922C310.601 120.841 310.512 120.758 310.45 120.674L309.024 118.754C308.949 118.639 308.926 118.521 308.955 118.4C308.985 118.271 309.065 118.165 309.193 118.081L311.614 116.503C311.748 116.415 311.897 116.381 312.06 116.399C312.223 116.418 312.36 116.485 312.471 116.6C312.578 116.711 312.623 116.833 312.608 116.968C312.588 117.099 312.511 117.208 312.377 117.295L310.216 118.704L310.246 118.579L311.428 120.188L311.055 119.986C311.042 119.916 311.071 119.823 311.141 119.707C311.211 119.591 311.305 119.471 311.422 119.348C311.535 119.219 311.661 119.11 311.801 119.019C312.175 118.775 312.582 118.631 313.021 118.587C313.456 118.538 313.879 118.586 314.292 118.731C314.706 118.868 315.065 119.095 315.37 119.412C315.717 119.772 315.925 120.148 315.994 120.541C316.063 120.933 315.996 121.317 315.794 121.692C315.592 122.058 315.256 122.394 314.787 122.7ZM314.95 114.117C315.251 113.92 315.575 113.799 315.922 113.752C316.269 113.698 316.617 113.71 316.965 113.788C317.318 113.862 317.653 113.988 317.969 114.165C318.286 114.333 318.567 114.545 318.812 114.799C318.969 114.962 319.139 115.176 319.321 115.441C319.508 115.701 319.676 115.998 319.824 116.332C319.968 116.66 320.065 117.011 320.116 117.385C320.162 117.753 320.131 118.132 320.025 118.522C319.924 118.908 319.71 119.29 319.383 119.668C319.33 119.726 319.273 119.775 319.211 119.815C319.083 119.899 318.938 119.946 318.776 119.958C318.615 119.961 318.463 119.888 318.32 119.739C318.214 119.629 318.163 119.51 318.167 119.382C318.177 119.251 318.232 119.124 318.334 119.003C318.526 118.769 318.668 118.496 318.76 118.186C318.853 117.867 318.883 117.539 318.849 117.202C318.81 116.86 318.694 116.537 318.502 116.233L318.735 116.092C318.736 116.217 318.724 116.365 318.7 116.537C318.68 116.706 318.622 116.881 318.524 117.062C318.426 117.235 318.263 117.396 318.034 117.546C317.666 117.786 317.28 117.928 316.877 117.972C316.475 118.008 316.078 117.95 315.687 117.798C315.291 117.642 314.931 117.396 314.607 117.06C314.316 116.757 314.134 116.423 314.062 116.055C313.996 115.684 314.039 115.328 314.192 114.986C314.34 114.639 314.592 114.35 314.95 114.117ZM315.713 114.909C315.534 115.025 315.411 115.172 315.345 115.348C315.279 115.516 315.269 115.694 315.315 115.883C315.356 116.068 315.455 116.241 315.613 116.405C315.784 116.582 315.973 116.713 316.181 116.796C316.384 116.875 316.59 116.905 316.799 116.886C317.013 116.863 317.215 116.79 317.405 116.666C317.584 116.55 317.706 116.407 317.772 116.239C317.843 116.068 317.856 115.888 317.81 115.699C317.764 115.51 317.663 115.333 317.506 115.17C317.344 115.002 317.158 114.881 316.95 114.806C316.737 114.726 316.52 114.695 316.301 114.713C316.088 114.727 315.891 114.792 315.713 114.909Z" fill="#FBFFF5"/>
<path opacity="0.3" d="M279.774 109.614C286.388 105.302 287.309 97.196 281.832 91.5094C276.355 85.8228 266.553 84.7088 259.939 89.0211C253.325 93.3335 252.404 101.439 257.881 107.126C263.359 112.812 273.16 113.926 279.774 109.614Z" fill="#FBFFF5"/>
<path opacity="0.6" d="M294.369 100.098C300.983 95.7854 301.904 87.6796 296.427 81.9931C290.949 76.3065 281.148 75.1924 274.534 79.5048C267.92 83.8171 266.999 91.9229 272.476 97.6095C277.954 103.296 287.755 104.41 294.369 100.098Z" fill="#FBFFF5"/>
</g>
<g filter="url(#filter0_d_4_1298)">
<mask id="mask2_4_1298" style="mask-type:luminance" maskUnits="userSpaceOnUse" x="22" y="30" width="305" height="258">
<path d="M153.346 32.2247L26.5257 109.94C21.8171 112.826 21.1082 118.387 24.9423 122.361L180.276 283.383C184.11 287.357 191.035 288.24 195.744 285.354L322.564 207.639C327.273 204.753 327.982 199.192 324.148 195.218L168.814 34.1966C164.98 30.2221 158.055 29.3392 153.346 32.2247Z" fill="white"/>
</mask>
<g mask="url(#mask2_4_1298)">
<path d="M153.346 32.2247L26.5257 109.94C21.8171 112.826 21.1082 118.387 24.9423 122.361L180.276 283.383C184.11 287.357 191.035 288.24 195.744 285.354L322.564 207.639C327.273 204.753 327.982 199.192 324.148 195.218L168.814 34.1966C164.98 30.2221 158.055 29.3392 153.346 32.2247Z" fill="url(#paint1_linear_4_1298)"/>
<path d="M155.939 55.6838C161.304 57.5193 163.38 59.7796 164.4 64.4545M155.277 58.2362C159.128 59.559 160.23 60.9155 160.918 64.0833M154.617 60.7879C156.964 61.5033 157.637 62.4157 158.088 64.3862" stroke="#E8EDDF" stroke-width="1.2499" stroke-linecap="round" stroke-linejoin="round"/>
<path opacity="0.2" d="M201.084 259.359C207.816 255.234 208.83 247.283 203.348 241.601C197.866 235.918 187.965 234.656 181.233 238.781C174.501 242.907 173.488 250.857 178.969 256.54C184.451 262.222 194.352 263.484 201.084 259.359Z" fill="#E8EDDF"/>
<path opacity="0.4" d="M215.94 250.255C222.672 246.13 223.686 238.179 218.204 232.497C212.722 226.814 202.821 225.552 196.089 229.677C189.357 233.803 188.344 241.753 193.825 247.436C199.307 253.118 209.208 254.38 215.94 250.255Z" fill="#E8EDDF"/>
<path d="M64.4341 117.249L58.2093 121.064C57.6208 121.424 57.2933 122.206 57.4778 122.808L60.6384 133.13C60.8229 133.733 61.4497 133.93 62.0383 133.569L68.2631 129.754C68.8517 129.394 69.1792 128.613 68.9946 128.01L65.8341 117.688C65.6495 117.085 65.0227 116.888 64.4341 117.249Z" fill="url(#paint2_linear_4_1298)"/>
<path d="M70.541 108.016L56.7864 116.445C56.1978 116.806 55.8703 117.587 56.0549 118.189L58.7231 126.903C58.9076 127.506 59.5344 127.703 60.123 127.342L73.8776 118.913C74.4662 118.552 74.7937 117.771 74.6091 117.168L71.941 108.454C71.7564 107.852 71.1296 107.655 70.541 108.016Z" fill="url(#paint3_linear_4_1298)"/>
</g>
</g>
</g>
<path d="M159.383 229.16L154.326 226.24L157.651 224.32L158.33 224.712L155.767 226.192L157.166 227L159.591 225.6L160.256 225.984L157.831 227.384L159.466 228.328L162.03 226.848L162.709 227.24L159.383 229.16ZM163.767 226.629L158.71 223.709L160.095 222.909C160.987 222.394 161.855 222.133 162.7 222.125C163.55 222.114 164.402 222.355 165.257 222.849C166.111 223.342 166.529 223.834 166.511 224.325C166.497 224.813 166.044 225.314 165.153 225.829L163.767 226.629ZM164.509 225.401C164.929 225.158 165.208 224.925 165.347 224.701C165.486 224.471 165.481 224.242 165.333 224.013C165.19 223.781 164.906 223.542 164.481 223.297C164.051 223.049 163.638 222.885 163.241 222.805C162.844 222.719 162.449 222.718 162.056 222.801C161.664 222.878 161.257 223.038 160.837 223.281L160.165 223.669L163.837 225.789L164.509 225.401ZM170.696 222.709C170.04 223.087 169.389 223.287 168.742 223.309C168.091 223.327 167.472 223.167 166.885 222.829L163.56 220.909L164.322 220.469L167.509 222.309C167.943 222.559 168.359 222.685 168.756 222.685C169.153 222.685 169.569 222.559 170.003 222.309C170.437 222.058 170.654 221.818 170.654 221.589C170.654 221.359 170.437 221.119 170.003 220.869L166.816 219.029L167.578 218.589L170.903 220.509C171.49 220.847 171.767 221.205 171.735 221.581C171.703 221.951 171.356 222.327 170.696 222.709ZM173.126 221.225L169.912 217.241L170.944 216.645L177.838 218.505L176.999 218.989L171.083 217.317L171.069 217.325L173.965 220.741L173.126 221.225ZM172.815 219.941L172.122 219.541L174.928 217.921L175.621 218.321L172.815 219.941ZM178.517 218.113L173.459 215.193L174.983 214.313C175.727 213.884 176.39 213.64 176.972 213.581C177.558 213.52 178.113 213.64 178.635 213.941C179.147 214.237 179.364 214.554 179.286 214.893C179.212 215.229 178.838 215.592 178.164 215.981L176.875 216.725L176.21 216.341L177.388 215.661C177.859 215.389 178.134 215.156 178.212 214.961C178.291 214.761 178.182 214.576 177.886 214.405C177.591 214.234 177.272 214.173 176.93 214.221C176.589 214.264 176.182 214.421 175.711 214.693L174.914 215.153L179.279 217.673L178.517 218.113ZM181.475 216.405L176.868 216.393L177.831 215.837L182.466 215.833L181.475 216.405ZM183.294 215.355L178.236 212.435L179.622 211.635C180.513 211.121 181.381 210.859 182.227 210.851C183.076 210.841 183.929 211.082 184.783 211.575C185.638 212.069 186.056 212.561 186.037 213.051C186.023 213.539 185.571 214.041 184.679 214.555L183.294 215.355ZM184.035 214.127C184.455 213.885 184.735 213.651 184.873 213.427C185.012 213.198 185.007 212.969 184.859 212.739C184.716 212.507 184.432 212.269 184.007 212.023C183.578 211.775 183.164 211.611 182.767 211.531C182.37 211.446 181.975 211.445 181.582 211.527C181.19 211.605 180.783 211.765 180.363 212.007L179.691 212.395L183.363 214.515L184.035 214.127ZM190.643 211.192C190.116 211.496 189.55 211.7 188.945 211.804C188.345 211.906 187.745 211.906 187.144 211.804C186.539 211.7 185.973 211.496 185.447 211.192C184.915 210.886 184.562 210.559 184.387 210.212C184.211 209.866 184.211 209.519 184.387 209.172C184.567 208.823 184.92 208.496 185.447 208.192C185.978 207.886 186.544 207.682 187.144 207.58C187.745 207.479 188.345 207.479 188.945 207.58C189.546 207.682 190.112 207.886 190.643 208.192C191.169 208.496 191.523 208.823 191.703 209.172C191.878 209.519 191.878 209.866 191.703 210.212C191.527 210.559 191.174 210.886 190.643 211.192ZM189.95 210.792C190.324 210.576 190.571 210.346 190.691 210.1C190.807 209.852 190.795 209.606 190.657 209.36C190.518 209.11 190.253 208.871 189.86 208.644C189.467 208.418 189.056 208.266 188.627 208.188C188.197 208.106 187.77 208.099 187.345 208.168C186.915 208.235 186.514 208.376 186.139 208.592C185.765 208.808 185.521 209.04 185.405 209.288C185.285 209.534 185.294 209.782 185.433 210.032C185.571 210.278 185.837 210.514 186.23 210.74C186.622 210.967 187.033 211.122 187.463 211.204C187.892 211.282 188.322 211.287 188.751 211.22C189.176 211.151 189.576 211.008 189.95 210.792ZM195.501 208.307L192.286 204.323L193.319 203.727L200.212 205.587L199.374 206.071L193.457 204.399L193.443 204.407L196.339 207.823L195.501 208.307ZM195.189 207.023L194.496 206.623L197.302 205.003L197.995 205.403L195.189 207.023ZM205.348 202.702C204.78 203.03 204.187 203.253 203.568 203.37C202.953 203.485 202.341 203.494 201.732 203.398C201.127 203.299 200.554 203.094 200.013 202.782C199.473 202.47 199.117 202.139 198.947 201.79C198.776 201.441 198.787 201.09 198.981 200.738C199.175 200.386 199.552 200.049 200.11 199.726C200.415 199.55 200.741 199.402 201.087 199.282C201.429 199.159 201.776 199.074 202.127 199.026L202.605 199.51C202.286 199.555 201.972 199.633 201.662 199.742C201.348 199.849 201.062 199.977 200.803 200.126C200.411 200.353 200.15 200.591 200.02 200.842C199.891 201.087 199.893 201.337 200.027 201.59C200.161 201.838 200.429 202.078 200.831 202.31C201.233 202.542 201.651 202.698 202.085 202.778C202.519 202.853 202.956 202.851 203.394 202.774C203.829 202.694 204.249 202.537 204.655 202.302C204.872 202.177 205.064 202.042 205.23 201.898C205.392 201.751 205.512 201.607 205.591 201.466L205.743 201.69L204.087 200.734L202.39 201.714L201.739 201.338L204.198 199.918L206.789 201.414C206.669 201.627 206.48 201.849 206.221 202.078C205.967 202.305 205.676 202.513 205.348 202.702ZM207.673 201.28L204.458 197.296L205.49 196.7L212.384 198.56L211.546 199.044L205.629 197.372L205.615 197.38L208.511 200.796L207.673 201.28ZM207.361 199.996L206.668 199.596L209.474 197.976L210.167 198.376L207.361 199.996ZM213.063 198.168L208.006 195.248L209.53 194.368C210.273 193.938 210.936 193.694 211.518 193.636C212.105 193.574 212.659 193.694 213.181 193.996C213.694 194.292 213.911 194.609 213.832 194.948C213.758 195.284 213.384 195.646 212.71 196.036L211.421 196.78L210.756 196.396L211.934 195.716C212.405 195.444 212.68 195.21 212.758 195.016C212.837 194.816 212.728 194.63 212.433 194.46C212.137 194.289 211.818 194.228 211.477 194.276C211.135 194.318 210.728 194.476 210.257 194.748L209.461 195.208L213.825 197.728L213.063 198.168ZM216.022 196.46L211.414 196.448L212.377 195.892L217.012 195.888L216.022 196.46ZM220.183 194.137C219.638 194.452 219.063 194.664 218.458 194.773C217.858 194.88 217.257 194.882 216.657 194.781C216.061 194.677 215.493 194.469 214.952 194.157C214.412 193.845 214.052 193.517 213.872 193.173C213.696 192.826 213.701 192.48 213.885 192.133C214.075 191.784 214.442 191.452 214.987 191.137C215.611 190.777 216.303 190.537 217.066 190.417L217.557 190.917C216.823 191.032 216.206 191.233 215.708 191.521C215.324 191.742 215.068 191.978 214.939 192.229C214.809 192.48 214.812 192.732 214.945 192.985C215.079 193.233 215.345 193.472 215.742 193.701C216.135 193.928 216.548 194.081 216.982 194.161C217.421 194.238 217.858 194.24 218.292 194.165C218.726 194.09 219.135 193.942 219.518 193.721C220.003 193.441 220.352 193.085 220.564 192.653L221.43 192.937C221.222 193.377 220.807 193.777 220.183 194.137ZM222.78 192.558L217.723 189.638L218.513 189.182L223.57 192.102L222.78 192.558ZM224.31 191.675L221.095 187.691L222.127 187.095L229.021 188.955L228.183 189.439L222.266 187.767L222.252 187.775L225.148 191.191L224.31 191.675ZM223.998 190.391L223.305 189.991L226.111 188.371L226.804 188.771L223.998 190.391Z" fill="white"/>
</g>
<defs>
<filter id="filter0_d_4_1298" x="-27.527" y="-31.4724" width="466.144" height="418.524" filterUnits="userSpaceOnUse" color-interpolation-filters="sRGB">
<feFlood flood-opacity="0" result="BackgroundImageFix"/>
<feColorMatrix in="SourceAlpha" type="matrix" values="0 0 0 0 0 0 0 0 0 0 0 0 0 0 0 0 0 0 127 0" result="hardAlpha"/>
<feOffset dx="31" dy="19"/>
<feGaussianBlur stdDeviation="40.5"/>
<feComposite in2="hardAlpha" operator="out"/>
<feColorMatrix type="matrix" values="0 0 0 0 0.101141 0 0 0 0 0.15 0 0 0 0 0.0128805 0 0 0 0.6 0"/>
<feBlend mode="normal" in2="BackgroundImageFix" result="effect1_dropShadow_4_1298"/>
<feBlend mode="normal" in="SourceGraphic" in2="effect1_dropShadow_4_1298" result="shape"/>
</filter>
<linearGradient id="paint0_linear_4_1298" x1="263.845" y1="53.0538" x2="226.283" y2="302.598" gradientUnits="userSpaceOnUse">
<stop stop-color="#BBE768"/>
<stop offset="1" stop-color="#496022"/>
</linearGradient>
<linearGradient id="paint1_linear_4_1298" x1="138.086" y1="28.6172" x2="98.0999" y2="273.316" gradientUnits="userSpaceOnUse">
<stop stop-color="#BBE768"/>
<stop offset="1" stop-color="#496022"/>
</linearGradient>
<linearGradient id="paint2_linear_4_1298" x1="61.3217" y1="119.156" x2="67.9382" y2="129.954" gradientUnits="userSpaceOnUse">
<stop stop-color="#F3FAE6" stop-opacity="0"/>
<stop offset="1" stop-color="#F3FAE6"/>
</linearGradient>
<linearGradient id="paint3_linear_4_1298" x1="69.1515" y1="107.077" x2="70.3731" y2="128.267" gradientUnits="userSpaceOnUse">
<stop stop-color="#ECF5DC"/>
<stop offset="1" stop-color="#ECF5DC" stop-opacity="0"/>
</linearGradient>
<clipPath id="clip0_4_1298">
<rect width="478" height="348" fill="white"/>
</clipPath>
</defs>
</svg>
